<svg width="540" height="308" viewBox="0 0 540 308" fill="none" xmlns="http://www.w3.org/2000/svg">
<path d="M504.76 306.598H368.307C363.342 306.592 358.583 304.614 355.072 301.097C351.562 297.581 349.587 292.813 349.582 287.84V72.2197C349.587 67.2464 351.562 62.4785 355.072 58.9619C358.583 55.4453 363.342 53.4673 368.307 53.4617H504.76C509.725 53.4673 514.484 55.4453 517.995 58.9619C521.505 62.4785 523.48 67.2464 523.485 72.2197V287.84C523.48 292.813 521.505 297.581 517.995 301.097C514.484 304.614 509.725 306.592 504.76 306.598Z" fill="#E6E6E6"/>
<path d="M507.023 64.6547H368.049C366.495 64.6567 365.005 65.2759 363.907 66.3767C362.808 67.4775 362.189 68.97 362.188 70.5268V288.958C362.19 290.515 362.808 292.007 363.907 293.108C365.006 294.209 366.495 294.828 368.049 294.83H507.023C508.577 294.829 510.067 294.209 511.166 293.108C512.265 292.008 512.883 290.515 512.885 288.958V70.5268C512.883 68.97 512.265 67.4775 511.166 66.3767C510.067 65.2759 508.577 64.6567 507.023 64.6547Z" fill="white"/>
<path d="M371.642 53.4617C371.642 53.0812 371.793 52.7165 372.062 52.4475C372.331 52.1784 372.695 52.0271 373.074 52.0266H382.815C383.195 52.0266 383.56 52.1778 383.828 52.447C384.097 52.7161 384.248 53.0811 384.248 53.4617C384.248 53.8422 384.097 54.2073 383.828 54.4764C383.56 54.7455 383.195 54.8967 382.815 54.8967H373.074C372.695 54.8962 372.331 54.7449 372.062 54.4759C371.793 54.2068 371.642 53.8421 371.642 53.4617Z" fill="#E6E6E6"/>
<path d="M387.686 53.4617C387.686 53.0812 387.837 52.7165 388.106 52.4475C388.374 52.1784 388.739 52.0271 389.118 52.0266H398.859C399.239 52.0266 399.603 52.1778 399.872 52.447C400.141 52.7161 400.292 53.0811 400.292 53.4617C400.292 53.8422 400.141 54.2073 399.872 54.4764C399.603 54.7455 399.239 54.8967 398.859 54.8967H389.118C388.739 54.8962 388.374 54.7449 388.106 54.4759C387.837 54.2069 387.686 53.8421 387.686 53.4617Z" fill="#E6E6E6"/>
<path d="M483.949 53.4617C483.949 53.0812 484.1 52.7165 484.369 52.4475C484.637 52.1784 485.001 52.0271 485.381 52.0266H495.122C495.502 52.0266 495.866 52.1778 496.135 52.447C496.404 52.7161 496.555 53.0811 496.555 53.4617C496.555 53.8422 496.404 54.2073 496.135 54.4764C495.866 54.7455 495.502 54.8967 495.122 54.8967H485.381C485.001 54.8962 484.637 54.7449 484.369 54.4759C484.1 54.2069 483.949 53.8421 483.949 53.4617Z" fill="#E6E6E6"/>
<path d="M456.795 290.33C456.795 291.84 456.766 293.344 456.697 294.83H368.049C366.495 294.828 365.006 294.209 363.907 293.108C362.808 292.007 362.19 290.515 362.188 288.958V179.014C388.586 183.286 412.604 196.834 429.94 217.231C447.275 237.629 456.795 263.542 456.795 290.33Z" fill="#F2F2F2"/>
<path d="M453.784 120.787H420.723C419.219 120.787 417.999 122.009 417.999 123.516V126.922C417.999 128.429 419.219 129.65 420.723 129.65H453.784C455.289 129.65 456.508 128.429 456.508 126.922V123.516C456.508 122.009 455.289 120.787 453.784 120.787Z" fill="#6C63FF"/>
<path d="M474.797 138.513H399.711C398.206 138.513 396.987 139.735 396.987 141.242V144.647C396.987 146.155 398.206 147.376 399.711 147.376H474.797C476.301 147.376 477.521 146.155 477.521 144.647V141.242C477.521 139.735 476.301 138.513 474.797 138.513Z" fill="#E6E6E6"/>
<path d="M474.797 156.239H399.711C398.206 156.239 396.987 157.461 396.987 158.968V162.373C396.987 163.88 398.206 165.102 399.711 165.102H474.797C476.301 165.102 477.521 163.88 477.521 162.373V158.968C477.521 157.461 476.301 156.239 474.797 156.239Z" fill="#E6E6E6"/>
<path d="M461.939 279.902C461.509 279.922 461.083 279.809 460.718 279.578C460.354 279.347 460.07 279.01 459.904 278.611C459.737 278.213 459.697 277.773 459.789 277.351C459.881 276.929 460.099 276.546 460.416 276.253L460.56 275.679C460.541 275.633 460.522 275.587 460.503 275.542C460.069 274.515 459.342 273.64 458.414 273.027C457.485 272.413 456.396 272.088 455.284 272.092C454.172 272.096 453.085 272.429 452.161 273.05C451.237 273.671 450.517 274.551 450.091 275.58C448.388 279.689 446.22 283.805 445.686 288.149C445.451 290.069 445.55 292.015 445.979 293.902C441.98 285.162 439.903 275.662 439.89 266.048C439.889 263.635 440.022 261.224 440.29 258.826C440.512 256.861 440.819 254.909 441.212 252.971C443.355 242.458 447.958 232.604 454.641 224.219C457.876 222.45 460.492 219.731 462.137 216.428C462.733 215.241 463.154 213.973 463.387 212.665C463.023 212.712 462.652 212.742 462.287 212.766C462.173 212.772 462.053 212.778 461.94 212.784L461.897 212.786C461.496 212.804 461.098 212.706 460.752 212.503C460.405 212.3 460.125 212 459.944 211.641C459.763 211.282 459.69 210.878 459.733 210.479C459.776 210.079 459.934 209.7 460.187 209.388C460.344 209.193 460.502 208.999 460.66 208.805C460.899 208.506 461.144 208.212 461.383 207.912C461.411 207.884 461.437 207.854 461.461 207.822C461.736 207.481 462.012 207.145 462.287 206.804C461.784 206.023 461.109 205.368 460.313 204.892C457.555 203.274 453.75 204.395 451.758 206.894C449.76 209.392 449.383 212.898 450.077 216.02C450.76 218.677 451.888 221.198 453.415 223.475C453.266 223.667 453.11 223.853 452.961 224.045C450.227 227.566 447.844 231.348 445.846 235.335C446.332 230.868 445.752 226.35 444.155 222.151C442.536 218.238 439.501 214.943 436.828 211.56C433.618 207.497 427.035 209.27 426.47 214.421C426.464 214.47 426.459 214.52 426.454 214.57C426.851 214.795 427.239 215.033 427.619 215.285C428.097 215.604 428.467 216.061 428.681 216.595C428.895 217.129 428.943 217.715 428.819 218.277C428.695 218.839 428.404 219.35 427.985 219.743C427.566 220.137 427.038 220.394 426.47 220.482L426.412 220.491C426.553 221.924 426.803 223.345 427.16 224.74C428.192 228.635 430.017 232.274 432.519 235.43C435.022 238.585 438.148 241.189 441.702 243.077C441.935 243.197 442.163 243.317 442.396 243.431C440.389 249.128 439.13 255.063 438.651 261.086C438.38 264.639 438.396 268.208 438.699 271.759L438.681 271.633C437.915 267.685 435.813 264.122 432.729 261.547C428.148 257.778 421.677 256.39 416.735 253.36C416.21 253.022 415.599 252.842 414.975 252.84C414.351 252.839 413.74 253.016 413.213 253.351C412.686 253.686 412.266 254.165 412.002 254.732C411.738 255.299 411.641 255.929 411.723 256.549C411.73 256.593 411.737 256.637 411.744 256.681C412.48 256.982 413.197 257.328 413.891 257.718C414.288 257.942 414.677 258.18 415.057 258.432C415.534 258.752 415.905 259.208 416.119 259.742C416.333 260.276 416.381 260.863 416.256 261.425C416.132 261.986 415.842 262.497 415.422 262.891C415.003 263.284 414.475 263.542 413.907 263.629L413.849 263.638C413.807 263.644 413.771 263.65 413.73 263.656C414.988 266.667 416.755 269.438 418.952 271.848C421.666 274.766 424.947 277.097 428.592 278.7C432.238 280.302 436.172 281.142 440.153 281.167H440.159C441.239 285.871 442.805 290.45 444.831 294.83H461.521C461.581 294.645 461.635 294.453 461.688 294.267C460.144 294.364 458.593 294.272 457.07 293.992C458.309 292.469 459.547 290.935 460.785 289.413C460.813 289.385 460.839 289.355 460.863 289.323C461.491 288.544 462.125 287.771 462.753 286.992L462.754 286.991C462.787 284.603 462.514 282.221 461.94 279.903L461.939 279.902ZM442.827 242.239L442.836 242.227L442.827 242.25V242.239ZM439.13 275.624L438.986 275.3C438.992 275.067 438.992 274.833 438.986 274.593C438.986 274.527 438.974 274.461 438.974 274.395C439.028 274.809 439.076 275.222 439.136 275.636L439.13 275.624Z" fill="#CCCCCC"/>
<path d="M500.077 83.9392H374.996C374.725 83.9333 374.468 83.8214 374.279 83.6276C374.089 83.4338 373.983 83.1734 373.983 82.9023C373.983 82.6311 374.089 82.3708 374.279 82.1769C374.468 81.9831 374.725 81.8712 374.996 81.8652H500.077C500.347 81.8712 500.605 81.9831 500.794 82.1769C500.983 82.3708 501.089 82.6311 501.089 82.9023C501.089 83.1734 500.983 83.4338 500.794 83.6276C500.605 83.8214 500.347 83.9333 500.077 83.9392Z" fill="#CACACA"/>
<path d="M381.669 78.8666C383.35 78.8666 384.712 77.4716 384.712 75.7508C384.712 74.03 383.35 72.635 381.669 72.635C379.989 72.635 378.627 74.03 378.627 75.7508C378.627 77.4716 379.989 78.8666 381.669 78.8666Z" fill="#3F3D56"/>
<path d="M392.18 78.8666C393.86 78.8666 395.222 77.4716 395.222 75.7508C395.222 74.03 393.86 72.635 392.18 72.635C390.5 72.635 389.137 74.03 389.137 75.7508C389.137 77.4716 390.5 78.8666 392.18 78.8666Z" fill="#3F3D56"/>
<path d="M402.69 78.8666C404.371 78.8666 405.733 77.4716 405.733 75.7508C405.733 74.03 404.371 72.635 402.69 72.635C401.01 72.635 399.648 74.03 399.648 75.7508C399.648 77.4716 401.01 78.8666 402.69 78.8666Z" fill="#3F3D56"/>
<path d="M495.188 73.8388H488.379C488.244 73.8415 488.115 73.8971 488.021 73.9936C487.926 74.0902 487.873 74.22 487.873 74.3553C487.873 74.4905 487.926 74.6203 488.021 74.7169C488.115 74.8134 488.244 74.869 488.379 74.8717H495.188C495.323 74.869 495.451 74.8134 495.546 74.7169C495.64 74.6203 495.693 74.4905 495.693 74.3553C495.693 74.22 495.64 74.0902 495.546 73.9936C495.451 73.8971 495.323 73.8415 495.188 73.8388Z" fill="#3F3D56"/>
<path d="M495.188 75.7774H488.379C488.244 75.7801 488.115 75.8357 488.021 75.9322C487.926 76.0288 487.873 76.1586 487.873 76.2939C487.873 76.4291 487.926 76.5589 488.021 76.6555C488.115 76.7521 488.244 76.8076 488.379 76.8103H495.188C495.323 76.8076 495.451 76.7521 495.546 76.6555C495.64 76.5589 495.693 76.4291 495.693 76.2939C495.693 76.1586 495.64 76.0288 495.546 75.9322C495.451 75.8357 495.323 75.7801 495.188 75.7774Z" fill="#3F3D56"/>
<path d="M495.188 77.7135H488.379C488.244 77.7161 488.115 77.7717 488.021 77.8683C487.926 77.9648 487.873 78.0947 487.873 78.2299C487.873 78.3651 487.926 78.495 488.021 78.5915C488.115 78.6881 488.244 78.7437 488.379 78.7463H495.188C495.323 78.7437 495.451 78.6881 495.546 78.5915C495.64 78.495 495.693 78.3651 495.693 78.2299C495.693 78.0947 495.64 77.9648 495.546 77.8683C495.451 77.7717 495.323 77.7161 495.188 77.7135Z" fill="#3F3D56"/>
<path d="M292.245 179.096H219.727C218.701 179.097 217.717 179.507 216.993 180.234C216.268 180.962 215.862 181.948 215.863 182.976V297.736H296.118V182.976C296.119 182.466 296.019 181.962 295.824 181.491C295.63 181.02 295.344 180.592 294.985 180.232C294.625 179.871 294.198 179.585 293.728 179.39C293.258 179.196 292.754 179.095 292.245 179.096ZM256.23 244.301C253.962 244.29 251.79 243.383 250.186 241.777C248.583 240.17 247.677 237.994 247.667 235.722V222.486C247.669 220.212 248.572 218.032 250.177 216.425C251.783 214.818 253.96 213.915 256.23 213.915C258.5 213.915 260.677 214.818 262.282 216.425C263.888 218.032 264.791 220.212 264.793 222.486V235.722C264.782 237.994 263.877 240.17 262.273 241.777C260.67 243.383 258.498 244.29 256.23 244.301Z" fill="#E6E6E6"/>
<path d="M215.614 294.065V305.137C215.615 305.711 215.843 306.261 216.248 306.666C216.653 307.072 217.202 307.3 217.775 307.301H294.207C294.779 307.299 295.327 307.07 295.731 306.664C296.136 306.259 296.364 305.71 296.367 305.137V294.065L215.614 294.065Z" fill="#CCCCCC"/>
<path d="M412.329 0H102.341C99.6777 0.00424446 97.1247 1.06597 95.2415 2.95252C93.3582 4.83906 92.2984 7.39654 92.2941 10.0645V219.615C92.2967 222.283 93.356 224.842 95.2396 226.729C97.1232 228.615 99.6772 229.677 102.341 229.679H412.329C414.993 229.677 417.547 228.615 419.43 226.729C421.314 224.842 422.373 222.283 422.376 219.615V10.0645C422.372 7.39654 421.312 4.83906 419.429 2.95252C417.545 1.06597 414.992 0.0042428 412.329 0Z" fill="#E6E6E6"/>
<path d="M409.742 7.26945H104.931C103.505 7.27256 102.138 7.84218 101.131 8.85334C100.124 9.86451 99.558 11.2346 99.5579 12.6632V217.019C99.5603 218.446 100.127 219.814 101.134 220.823C102.141 221.832 103.507 222.399 104.931 222.402H409.742C411.166 222.399 412.531 221.832 413.538 220.823C414.545 219.814 415.112 218.446 415.115 217.019V12.6632C415.114 11.2346 414.549 9.86451 413.541 8.85334C412.534 7.84218 411.168 7.27256 409.742 7.26945Z" fill="white"/>
<path d="M415.115 12.6632V217.019C415.112 218.446 414.545 219.814 413.538 220.823C412.531 221.832 411.166 222.399 409.742 222.402H302.259C290.368 211.355 280.613 198.207 273.483 183.617C273.014 182.676 272.567 181.725 272.143 180.763C265.646 166.641 261.712 151.472 260.525 135.968C260.447 135.017 260.38 134.066 260.336 133.104C260.19 130.642 260.123 128.146 260.123 125.64C260.102 108.969 263.245 92.4461 269.384 76.9511C269.752 75.9887 270.143 75.0375 270.545 74.0863C282.901 45.0061 305.226 21.308 333.491 7.26945H409.742C411.168 7.27256 412.534 7.84218 413.541 8.85334C414.549 9.86451 415.114 11.2346 415.115 12.6632Z" fill="#6C63FF"/>
<path d="M394.419 35.4252H109.209C108.912 35.4188 108.63 35.2964 108.423 35.084C108.215 34.8716 108.099 34.5862 108.099 34.289C108.099 33.9918 108.215 33.7064 108.423 33.494C108.63 33.2816 108.912 33.1591 109.209 33.1528H394.419C394.716 33.1591 394.998 33.2816 395.206 33.494C395.413 33.7064 395.53 33.9918 395.53 34.289C395.53 34.5862 395.413 34.8716 395.206 35.084C394.998 35.2964 394.716 35.4188 394.419 35.4252Z" fill="#CACACA"/>
<path d="M128.624 27.3516C132.295 27.3516 135.271 24.304 135.271 20.5445C135.271 16.7851 132.295 13.7375 128.624 13.7375C124.953 13.7375 121.977 16.7851 121.977 20.5445C121.977 24.304 124.953 27.3516 128.624 27.3516Z" fill="#3F3D56"/>
<path d="M151.586 27.3516C155.257 27.3516 158.233 24.304 158.233 20.5445C158.233 16.7851 155.257 13.7375 151.586 13.7375C147.915 13.7375 144.939 16.7851 144.939 20.5445C144.939 24.304 147.915 27.3516 151.586 27.3516Z" fill="#3F3D56"/>
<path d="M174.548 27.3516C178.219 27.3516 181.195 24.304 181.195 20.5445C181.195 16.7851 178.219 13.7375 174.548 13.7375C170.877 13.7375 167.901 16.7851 167.901 20.5445C167.901 24.304 170.877 27.3516 174.548 27.3516Z" fill="#3F3D56"/>
<path d="M380.594 15.4247H364.283C363.96 15.4311 363.652 15.5642 363.425 15.7955C363.199 16.0269 363.072 16.3379 363.072 16.6619C363.072 16.9858 363.199 17.2969 363.425 17.5282C363.652 17.7595 363.96 17.8927 364.283 17.8991H380.594C380.917 17.8927 381.225 17.7595 381.452 17.5282C381.678 17.2969 381.805 16.9858 381.805 16.6619C381.805 16.3379 381.678 16.0269 381.452 15.7955C381.225 15.5642 380.917 15.4311 380.594 15.4247Z" fill="#3F3D56"/>
<path d="M380.594 20.0688H364.283C363.96 20.0752 363.652 20.2084 363.425 20.4397C363.199 20.671 363.072 20.9821 363.072 21.306C363.072 21.63 363.199 21.941 363.425 22.1724C363.652 22.4037 363.96 22.5369 364.283 22.5433H380.594C380.917 22.5369 381.225 22.4037 381.452 22.1724C381.678 21.941 381.805 21.63 381.805 21.306C381.805 20.9821 381.678 20.671 381.452 20.4397C381.225 20.2084 380.917 20.0752 380.594 20.0688Z" fill="#3F3D56"/>
<path d="M380.594 24.7069H364.283C363.96 24.7133 363.652 24.8465 363.425 25.0778C363.199 25.3091 363.072 25.6201 363.072 25.9441C363.072 26.2681 363.199 26.5791 363.425 26.8104C363.652 27.0418 363.96 27.1749 364.283 27.1813H380.594C380.917 27.1749 381.225 27.0418 381.452 26.8104C381.678 26.5791 381.805 26.2681 381.805 25.9441C381.805 25.6201 381.678 25.3091 381.452 25.0778C381.225 24.8465 380.917 24.7133 380.594 24.7069Z" fill="#3F3D56"/>
<path d="M196.537 101.803H156.653C155.148 101.803 153.929 103.025 153.929 104.532V108.785C153.929 110.292 155.148 111.514 156.653 111.514H196.537C198.041 111.514 199.261 110.292 199.261 108.785V104.532C199.261 103.025 198.041 101.803 196.537 101.803Z" fill="#6C63FF"/>
<path d="M219.56 121.225H133.63C132.126 121.225 130.906 122.447 130.906 123.954V128.207C130.906 129.714 132.126 130.936 133.63 130.936H219.56C221.064 130.936 222.284 129.714 222.284 128.207V123.954C222.284 122.447 221.064 121.225 219.56 121.225Z" fill="#E6E6E6"/>
<path d="M219.56 140.647H133.63C132.126 140.647 130.906 141.868 130.906 143.376V147.629C130.906 149.136 132.126 150.358 133.63 150.358H219.56C221.064 150.358 222.284 149.136 222.284 147.629V143.376C222.284 141.868 221.064 140.647 219.56 140.647Z" fill="#E6E6E6"/>
<path d="M138.364 210.686C138.371 214.686 137.66 218.654 136.264 222.402H104.931C103.507 222.399 102.141 221.832 101.134 220.823C100.127 219.814 99.5603 218.446 99.5579 217.019V177.54C101.309 177.257 103.079 177.114 104.853 177.115C109.254 177.115 113.611 177.983 117.677 179.67C121.743 181.357 125.438 183.83 128.55 186.947C131.662 190.064 134.13 193.765 135.814 197.838C137.498 201.912 138.365 206.277 138.364 210.686Z" fill="#6C63FF"/>
<path opacity="0.2" d="M415.394 76.9511V74.0864H367.461V40.885H364.613V74.0864H309.676V40.885H306.827V74.0864H270.545C270.143 75.0376 269.752 75.9888 269.384 76.9512H306.827V133.104H260.336C260.38 134.066 260.447 135.017 260.525 135.969H306.827V180.763H272.143C272.567 181.725 273.014 182.677 273.483 183.617H306.827V221.272H309.676V183.617H364.613V221.272H367.461V183.617H415.394V180.763H367.461V180.763C367.461 174.88 368.618 169.056 370.865 163.621C373.112 158.186 376.406 153.248 380.558 149.088C384.71 144.929 389.64 141.629 395.065 139.378C400.49 137.127 406.305 135.968 412.177 135.968H415.394V133.104H367.461V76.9511H415.394ZM364.613 180.763H309.676V135.968H364.613V180.763ZM364.613 133.104H309.676V131.985C309.676 117.389 315.464 103.391 325.766 93.0701C336.069 82.7493 350.042 76.9511 364.613 76.9511H364.613V133.104Z" fill="black"/>
<path d="M376.801 201.201C376.189 201.229 375.584 201.068 375.067 200.74C374.55 200.412 374.146 199.933 373.91 199.367C373.674 198.801 373.617 198.177 373.747 197.578C373.877 196.978 374.188 196.434 374.637 196.018C374.713 195.718 374.767 195.503 374.842 195.203C374.815 195.138 374.788 195.073 374.761 195.008C372.012 188.443 362.698 188.488 359.974 195.063C357.555 200.898 354.476 206.743 353.718 212.912C353.384 215.639 353.525 218.404 354.134 221.083C348.454 208.67 345.504 195.179 345.485 181.524C345.484 178.097 345.674 174.673 346.055 171.268C346.369 168.477 346.805 165.705 347.363 162.953C350.408 148.022 356.944 134.027 366.436 122.118C371.031 119.606 374.746 115.745 377.082 111.053C377.928 109.367 378.526 107.567 378.857 105.708C378.339 105.776 377.812 105.819 377.294 105.853C377.133 105.862 376.963 105.87 376.801 105.879L376.74 105.881C376.171 105.907 375.606 105.767 375.114 105.479C374.622 105.19 374.224 104.765 373.967 104.255C373.71 103.745 373.606 103.172 373.667 102.604C373.729 102.036 373.952 101.498 374.312 101.055C374.535 100.779 374.759 100.503 374.983 100.227C375.323 99.8018 375.671 99.3847 376.011 98.9592C376.05 98.9188 376.087 98.8761 376.122 98.8315C376.513 98.3464 376.903 97.8698 377.294 97.3846C376.581 96.2755 375.621 95.3463 374.491 94.6697C370.574 92.3718 365.17 93.9633 362.341 97.5124C359.504 101.061 358.968 106.04 359.954 110.475C360.795 114.27 362.63 117.751 364.695 121.062C364.482 121.334 364.261 121.598 364.049 121.871C360.166 126.872 356.782 132.243 353.945 137.905C354.635 131.562 353.812 125.144 351.543 119.181C349.243 113.624 344.933 108.944 341.138 104.139C336.578 98.3689 327.229 100.887 326.426 108.202C326.418 108.273 326.411 108.344 326.403 108.415C326.967 108.733 327.519 109.072 328.059 109.429C328.737 109.883 329.263 110.532 329.567 111.29C329.871 112.049 329.939 112.882 329.763 113.679C329.586 114.477 329.173 115.203 328.578 115.762C327.983 116.321 327.233 116.686 326.426 116.811L326.344 116.824C326.545 118.859 326.9 120.876 327.406 122.858C328.872 128.39 331.464 133.559 335.018 138.04C338.572 142.522 343.012 146.219 348.06 148.901C348.391 149.072 348.714 149.242 349.045 149.404C346.195 157.495 344.407 165.923 343.727 174.477C343.341 179.523 343.364 184.592 343.795 189.635L343.769 189.456C342.682 183.849 339.696 178.789 335.316 175.132C328.81 169.779 319.619 167.807 312.601 163.504C309.223 161.433 304.894 164.11 305.483 168.033C305.493 168.096 305.502 168.159 305.512 168.221C306.558 168.648 307.577 169.14 308.562 169.694C309.126 170.012 309.677 170.35 310.217 170.708C310.896 171.162 311.421 171.811 311.725 172.569C312.029 173.328 312.098 174.16 311.921 174.958C311.745 175.756 311.332 176.482 310.736 177.041C310.141 177.6 309.391 177.965 308.585 178.09L308.502 178.102C308.443 178.111 308.392 178.119 308.332 178.128C310.12 182.404 312.629 186.339 315.749 189.762C319.604 193.906 324.263 197.217 329.441 199.493C334.618 201.769 340.205 202.961 345.859 202.997H345.868C347.402 209.678 349.626 216.181 352.503 222.402H376.207C376.292 222.138 376.368 221.866 376.445 221.602C374.251 221.74 372.048 221.609 369.886 221.21C371.644 219.049 373.403 216.87 375.162 214.708C375.201 214.668 375.238 214.625 375.272 214.58C376.164 213.474 377.065 212.376 377.957 211.27L377.957 211.268C378.005 207.877 377.616 204.493 376.801 201.201L376.801 201.201ZM349.657 147.71L349.669 147.693L349.657 147.727V147.71ZM344.406 195.124L344.202 194.665C344.211 194.333 344.211 194.001 344.202 193.661C344.202 193.567 344.185 193.473 344.185 193.38C344.262 193.967 344.33 194.554 344.415 195.141L344.406 195.124Z" fill="#2F2E41"/>
<path d="M165.727 145.665V113.751C165.727 108.853 163.785 104.155 160.327 100.691C156.869 97.2268 152.179 95.2808 147.289 95.2808H79.7954C74.9053 95.2808 70.2155 97.2268 66.7577 100.691C63.2999 104.155 61.3573 108.853 61.3573 113.751V288.831C61.3573 293.73 63.2999 298.428 66.7577 301.892C70.2155 305.355 74.9053 307.302 79.7954 307.302H147.289C149.711 307.302 152.108 306.824 154.345 305.896C156.582 304.967 158.615 303.607 160.327 301.892C162.039 300.176 163.397 298.14 164.324 295.899C165.251 293.658 165.727 291.257 165.727 288.831V168.381C166.036 168.381 166.332 168.259 166.55 168.04C166.768 167.822 166.89 167.525 166.89 167.216V146.83C166.89 146.521 166.768 146.225 166.55 146.006C166.332 145.788 166.036 145.665 165.727 145.665Z" fill="#E6E6E6"/>
<path d="M161.803 113.878V288.705C161.804 292.336 160.374 295.821 157.824 298.402C155.274 300.984 151.811 302.453 148.186 302.491C148.136 302.496 148.086 302.498 148.035 302.497H80.213C76.5617 302.497 73.06 301.043 70.478 298.457C67.8961 295.871 66.4455 292.363 66.4452 288.705V113.878C66.4455 110.22 67.8961 106.712 70.478 104.126C73.06 101.54 76.5617 100.086 80.213 100.086H88.4436C88.039 101.081 87.8848 102.161 87.9946 103.23C88.1044 104.299 88.4748 105.325 89.0732 106.217C89.6716 107.109 90.4796 107.84 91.4263 108.346C92.373 108.852 93.4292 109.117 94.502 109.117H133.169C134.241 109.114 135.296 108.848 136.241 108.341C137.186 107.835 137.993 107.104 138.59 106.212C139.188 105.321 139.558 104.296 139.668 103.228C139.778 102.16 139.624 101.081 139.221 100.086H148.035C151.687 100.086 155.189 101.54 157.771 104.126C160.352 106.712 161.803 110.22 161.803 113.878Z" fill="white"/>
<path d="M148.356 297.101C148.356 298.912 148.299 300.709 148.186 302.491C148.136 302.496 148.086 302.498 148.035 302.497H80.213C76.5617 302.497 73.06 301.043 70.478 298.457C67.8961 295.87 66.4455 292.363 66.4452 288.705V210.794C88.5428 211.911 109.367 221.491 124.613 237.554C139.858 253.618 148.358 274.936 148.356 297.101Z" fill="#F2F2F2"/>
<path d="M61.7303 163.518C61.3142 163.518 60.9153 163.352 60.621 163.057C60.3268 162.763 60.1613 162.363 60.1608 161.946V151.255C60.1608 150.838 60.3261 150.438 60.6205 150.143C60.9148 149.848 61.314 149.682 61.7303 149.682C62.1466 149.682 62.5458 149.848 62.8401 150.143C63.1345 150.438 63.2998 150.838 63.2998 151.255V161.946C63.2993 162.363 63.1338 162.763 62.8396 163.057C62.5453 163.352 62.1464 163.518 61.7303 163.518Z" fill="#E6E6E6"/>
<path d="M122.452 154.982H105.797C104.292 154.982 103.073 156.203 103.073 157.71V161.964C103.073 163.471 104.292 164.692 105.797 164.692H122.452C123.956 164.692 125.176 163.471 125.176 161.964V157.71C125.176 156.203 123.956 154.982 122.452 154.982Z" fill="#6C63FF"/>
<path d="M145.475 174.403H82.774C81.2696 174.403 80.05 175.625 80.05 177.132V181.385C80.05 182.892 81.2696 184.114 82.774 184.114H145.475C146.979 184.114 148.199 182.892 148.199 181.385V177.132C148.199 175.625 146.979 174.403 145.475 174.403Z" fill="#E6E6E6"/>
<path d="M145.475 193.825H82.774C81.2696 193.825 80.05 195.047 80.05 196.554V200.807C80.05 202.314 81.2696 203.536 82.774 203.536H145.475C146.979 203.536 148.199 202.314 148.199 200.807V196.554C148.199 195.047 146.979 193.825 145.475 193.825Z" fill="#E6E6E6"/>
<path d="M130.388 292.548C130.101 292.561 129.817 292.486 129.574 292.332C129.332 292.178 129.142 291.953 129.031 291.688C128.92 291.422 128.894 291.129 128.955 290.848C129.016 290.567 129.162 290.311 129.373 290.116L129.469 289.733C129.456 289.703 129.443 289.672 129.431 289.642C129.142 288.958 128.657 288.375 128.038 287.966C127.42 287.557 126.694 287.34 125.952 287.343C125.211 287.345 124.487 287.567 123.871 287.981C123.256 288.395 122.776 288.981 122.492 289.668C121.357 292.406 119.912 295.149 119.556 298.044C119.399 299.324 119.465 300.621 119.751 301.878C117.086 296.053 115.702 289.722 115.693 283.314C115.692 281.706 115.781 280.1 115.96 278.502C116.107 277.192 116.312 275.891 116.574 274.6C118.002 267.593 121.07 261.025 125.524 255.437C127.68 254.258 129.424 252.446 130.52 250.245C130.917 249.453 131.198 248.609 131.353 247.737C131.11 247.769 130.863 247.789 130.62 247.805C130.544 247.808 130.464 247.812 130.388 247.816L130.36 247.818C130.092 247.83 129.827 247.764 129.596 247.629C129.366 247.493 129.179 247.294 129.058 247.055C128.938 246.815 128.889 246.546 128.918 246.28C128.946 246.013 129.051 245.761 129.22 245.553C129.325 245.423 129.43 245.294 129.535 245.165C129.695 244.965 129.858 244.769 130.017 244.569C130.036 244.55 130.053 244.53 130.069 244.509C130.253 244.282 130.436 244.058 130.62 243.831C130.285 243.31 129.834 242.874 129.304 242.557C127.466 241.478 124.93 242.225 123.603 243.89C122.271 245.556 122.02 247.892 122.482 249.973C122.937 251.744 123.689 253.424 124.707 254.942C124.607 255.069 124.504 255.193 124.404 255.321C122.582 257.668 120.994 260.188 119.663 262.846C119.986 259.869 119.6 256.857 118.535 254.059C117.456 251.451 115.434 249.255 113.652 247C113.181 246.395 112.542 245.943 111.814 245.701C111.086 245.46 110.304 245.44 109.565 245.644C108.826 245.848 108.164 246.267 107.663 246.848C107.162 247.428 106.844 248.145 106.749 248.907C106.745 248.94 106.742 248.973 106.738 249.007C107.003 249.156 107.262 249.315 107.515 249.483C107.833 249.696 108.08 250 108.223 250.356C108.365 250.712 108.397 251.103 108.315 251.477C108.232 251.852 108.038 252.192 107.759 252.454C107.479 252.717 107.127 252.888 106.749 252.947L106.71 252.953C106.805 253.908 106.971 254.854 107.209 255.784C107.897 258.38 109.113 260.806 110.781 262.909C112.449 265.012 114.532 266.747 116.901 268.006C117.056 268.086 117.208 268.165 117.363 268.241C116.026 272.038 115.187 275.994 114.867 280.007C114.687 282.375 114.697 284.754 114.899 287.12L114.887 287.037C114.377 284.405 112.976 282.031 110.92 280.315C107.868 277.803 103.555 276.878 100.261 274.858C99.9112 274.633 99.5042 274.513 99.0882 274.512C98.6723 274.511 98.2647 274.629 97.9136 274.853C97.5625 275.076 97.2825 275.395 97.1067 275.773C96.9308 276.15 96.8664 276.571 96.921 276.984L96.9345 277.072C97.4254 277.272 97.9034 277.503 98.3657 277.763C98.6303 277.912 98.8893 278.071 99.1427 278.239C99.461 278.452 99.7076 278.756 99.8503 279.112C99.993 279.468 100.025 279.859 99.9422 280.233C99.8594 280.608 99.6656 280.948 99.3862 281.211C99.1069 281.473 98.7549 281.644 98.3766 281.703L98.3378 281.709C98.3099 281.713 98.286 281.717 98.2581 281.721C99.0969 283.727 100.274 285.574 101.739 287.18C103.547 289.125 105.734 290.679 108.163 291.747C110.593 292.814 113.215 293.374 115.868 293.391H115.872C116.592 296.526 117.636 299.578 118.986 302.497H130.109C130.149 302.373 130.185 302.245 130.221 302.122C129.191 302.186 128.158 302.125 127.143 301.938C127.968 300.923 128.793 299.901 129.619 298.886C129.637 298.867 129.655 298.848 129.671 298.827C130.089 298.307 130.512 297.792 130.93 297.273L130.931 297.272C130.953 295.681 130.771 294.093 130.388 292.548L130.388 292.548ZM117.65 267.447L117.656 267.439L117.65 267.454V267.447ZM115.186 289.697L115.091 289.481C115.095 289.325 115.095 289.169 115.091 289.01C115.091 288.966 115.083 288.922 115.083 288.878C115.119 289.153 115.15 289.429 115.19 289.705L115.186 289.697Z" fill="#CCCCCC"/>
<path d="M61.4164 142.764C61.0003 142.764 60.6013 142.598 60.3071 142.303C60.0129 142.008 59.8474 141.609 59.8469 141.192V130.5C59.8469 130.083 60.0122 129.683 60.3066 129.388C60.6009 129.094 61.0001 128.928 61.4164 128.928C61.8327 128.928 62.2319 129.094 62.5262 129.388C62.8206 129.683 62.9859 130.083 62.9859 130.5V141.192C62.9854 141.609 62.8199 142.008 62.5257 142.303C62.2314 142.598 61.8325 142.764 61.4164 142.764Z" fill="#E6E6E6"/>
<path d="M103.166 101.884C103.166 101.468 103.332 101.068 103.626 100.773C103.92 100.478 104.319 100.313 104.735 100.312H115.408C115.824 100.312 116.224 100.478 116.518 100.773C116.812 101.068 116.978 101.467 116.978 101.884C116.978 102.301 116.812 102.701 116.518 102.996C116.224 103.291 115.824 103.457 115.408 103.457H104.735C104.319 103.456 103.92 103.29 103.626 102.996C103.332 102.701 103.166 102.301 103.166 101.884Z" fill="white"/>
<path d="M61.7303 181.757C61.3142 181.757 60.9153 181.591 60.621 181.296C60.3268 181.001 60.1613 180.602 60.1608 180.185V169.493C60.1608 169.076 60.3261 168.676 60.6205 168.381C60.9148 168.087 61.314 167.921 61.7303 167.921C62.1466 167.921 62.5458 168.087 62.8401 168.381C63.1345 168.676 63.2998 169.076 63.2998 169.493V180.185C63.2993 180.602 63.1338 181.001 62.8396 181.296C62.5453 181.591 62.1464 181.757 61.7303 181.757Z" fill="#E6E6E6"/>
<path d="M121.372 103.457C122.239 103.457 122.942 102.753 122.942 101.884C122.942 101.016 122.239 100.312 121.372 100.312C120.506 100.312 119.803 101.016 119.803 101.884C119.803 102.753 120.506 103.457 121.372 103.457Z" fill="white"/>
<path d="M539.252 307.297L0.747522 307.491C0.549641 307.49 0.360065 307.411 0.220345 307.271C0.0806244 307.13 0.00215912 306.94 0.00215912 306.742C0.00215912 306.544 0.0806244 306.353 0.220345 306.213C0.360065 306.073 0.549641 305.994 0.747522 305.993L539.252 305.8C539.451 305.8 539.641 305.879 539.781 306.019C539.921 306.159 540 306.35 540 306.548C540 306.747 539.921 306.938 539.781 307.078C539.641 307.218 539.451 307.297 539.252 307.297Z" fill="#CACACA"/>
</svg>
